<svg width="77" height="19" viewBox="0 0 77 19" fill="none" xmlns="http://www.w3.org/2000/svg">
<path d="M0.872 18V1.08H12.272V3.504H3.848V8.184H11.72V10.632H3.848V15.552H12.272V18H0.872ZM16.1454 18V1.08H23.5614C25.4014 1.08 26.8174 1.472 27.8094 2.256C28.8014 3.024 29.2974 4.096 29.2974 5.472C29.2974 6.496 28.9934 7.36 28.3854 8.064C27.7774 8.768 26.9374 9.24 25.8654 9.48V9.12C27.0974 9.296 28.0494 9.744 28.7214 10.464C29.4094 11.168 29.7534 12.104 29.7534 13.272C29.7534 14.776 29.2334 15.944 28.1934 16.776C27.1534 17.592 25.7054 18 23.8494 18H16.1454ZM19.1214 15.648H23.4894C24.5294 15.648 25.3374 15.456 25.9134 15.072C26.4894 14.672 26.7774 14.024 26.7774 13.128C26.7774 12.216 26.4894 11.568 25.9134 11.184C25.3374 10.784 24.5294 10.584 23.4894 10.584H19.1214V15.648ZM19.1214 8.256H23.0334C24.1374 8.256 24.9534 8.056 25.4814 7.656C26.0254 7.24 26.2974 6.632 26.2974 5.832C26.2974 5.032 26.0254 4.432 25.4814 4.032C24.9534 3.616 24.1374 3.408 23.0334 3.408H19.1214V8.256ZM38.9534 18L31.4174 1.08H34.7534L40.8254 15.288H39.8174L45.8894 1.08H49.1054L41.5694 18H38.9534ZM49.8898 18V14.664H53.2498V18H49.8898ZM57.1789 18V5.88H60.1789V18H57.1789ZM57.0109 3.6V0.671999H60.3469V3.6H57.0109ZM69.1407 18.24C68.0847 18.24 67.1487 17.992 66.3327 17.496C65.5327 16.984 64.9087 16.256 64.4607 15.312C64.0127 14.368 63.7887 13.24 63.7887 11.928C63.7887 10.616 64.0127 9.496 64.4607 8.568C64.9087 7.624 65.5327 6.904 66.3327 6.408C67.1487 5.896 68.0847 5.64 69.1407 5.64C70.1487 5.64 71.0367 5.888 71.8047 6.384C72.5887 6.864 73.1087 7.52 73.3647 8.352H73.0527V0.335999H76.0527V18H73.1007V15.432H73.3887C73.1327 16.296 72.6127 16.984 71.8287 17.496C71.0607 17.992 70.1647 18.24 69.1407 18.24ZM69.9807 15.936C70.9247 15.936 71.6847 15.608 72.2607 14.952C72.8367 14.28 73.1247 13.272 73.1247 11.928C73.1247 10.584 72.8367 9.584 72.2607 8.928C71.6847 8.272 70.9247 7.944 69.9807 7.944C69.0367 7.944 68.2687 8.272 67.6767 8.928C67.1007 9.584 66.8127 10.584 66.8127 11.928C66.8127 13.272 67.1007 14.28 67.6767 14.952C68.2687 15.608 69.0367 15.936 69.9807 15.936Z" fill="#121212"/>
</svg>
