<svg width="42" height="43" viewBox="0 0 42 43" fill="none" xmlns="http://www.w3.org/2000/svg">
<path d="M25.6937 42.7623C25.3651 42.6757 25.0621 42.5115 24.81 42.2836L15.8103 33.9982L3.87357 36.6737C3.48576 36.7613 3.08112 36.7384 2.70567 36.6076C2.33022 36.4767 1.99902 36.2431 1.74971 35.9334C1.5004 35.6237 1.34298 35.2502 1.29536 34.8555C1.24773 34.4607 1.31181 34.0606 1.4803 33.7004L6.62934 22.6943L0.372624 12.218C0.179329 11.884 0.0806309 11.5037 0.0871216 11.1178C0.0936123 10.732 0.205047 10.3552 0.409467 10.0279C0.626182 9.69497 0.931877 9.42946 1.29186 9.2615C1.65185 9.09353 2.0517 9.02983 2.44606 9.07762L14.6023 10.5089L22.5758 1.35959C22.8369 1.0576 23.1777 0.835242 23.5593 0.718002C23.9409 0.600762 24.3478 0.593379 24.7334 0.696698C25.119 0.800018 25.4677 1.00986 25.7395 1.30219C26.0114 1.59452 26.1954 1.95751 26.2705 2.34958L28.6681 14.2558L39.9114 19.0944C40.2768 19.2502 40.5912 19.5053 40.819 19.8308C41.0468 20.1562 41.1788 20.539 41.2 20.9357C41.2134 21.3213 41.1215 21.7034 40.9342 22.0408C40.7469 22.3782 40.4712 22.6582 40.1368 22.8508L29.4802 28.7952L28.4363 40.9013C28.4065 41.3057 28.2616 41.6932 28.0186 42.0179C27.7757 42.3426 27.4449 42.5911 27.0653 42.7339C26.6238 42.8947 26.1415 42.9048 25.6937 42.7623Z" fill="url(#paint0_linear_47_9754)"/>
<defs>
<linearGradient id="paint0_linear_47_9754" x1="24.7642" y1="0.704949" x2="14.3094" y2="39.7227" gradientUnits="userSpaceOnUse">
<stop stop-color="#FFF6DC"/>
<stop offset="1" stop-color="#FFC107"/>
</linearGradient>
</defs>
</svg>
